<svg width="82" height="79" viewBox="0 0 82 79" fill="none" xmlns="http://www.w3.org/2000/svg">
<g clip-path="url(#clip0_45_763)">
<path d="M19.3347 66.3966C20.9119 67.2683 22.7071 67.6549 24.7205 67.5564C26.7339 67.458 28.822 66.8095 30.985 65.6108C33.1479 64.4139 35.1982 62.5433 37.1359 59.999C38.1038 58.7006 39.0589 57.3039 40.0012 55.8091C40.9434 54.3143 41.8982 52.643 42.8657 50.7951C43.8341 48.9503 44.8273 46.9303 45.8452 44.7351C46.8631 42.5399 47.9581 40.1202 49.1302 37.4762C49.639 37.4258 50.1101 37.3885 50.5436 37.3643C50.964 37.3386 51.386 37.351 51.8042 37.4013C53.4172 37.3987 55.0189 37.6644 56.5411 38.1872C58.0828 38.7181 59.5273 39.4886 60.819 40.4691C61.9906 41.2194 63.1622 42.4293 64.3338 44.0989C65.5054 45.7685 66.371 47.5018 66.9307 49.2989V49.3738C66.6766 49.1738 66.4738 49.336 66.3224 49.8603C66.171 50.3846 66.2219 51.3196 66.4751 52.6653L66.5515 52.8162H66.3988C66.6529 53.1145 66.9332 53.239 67.2396 53.1896C67.5445 53.1399 67.7472 53.0406 67.8479 52.8903C68.0007 52.7897 68.1183 52.7407 68.192 52.7407C68.2657 52.7407 68.2549 52.6904 68.1535 52.5911C68.2549 52.0416 68.3184 51.6186 68.3441 51.3194C68.3698 51.0202 68.3562 50.5713 68.3062 49.9722L68.0778 49.8226C68.1791 49.722 68.1791 49.5485 68.0778 49.2989C67.3903 46.709 66.1818 44.2796 64.5231 42.1532C62.8675 40.0348 60.5885 38.4509 57.6861 37.4013H57.7638C56.7527 37.0177 55.7023 36.7418 54.6309 36.5785C53.6116 36.4297 52.593 36.33 51.575 36.2792C51.2702 36.2792 50.9511 36.266 50.6199 36.2415C50.2887 36.217 49.9704 36.2044 49.6649 36.2044C50.1231 35.1567 50.5062 34.321 50.8139 33.6974C51.1217 33.0738 51.3511 32.5751 51.502 32.2013C51.6548 31.8275 51.7566 31.5655 51.8075 31.4155L51.9603 30.9666L56.1625 21.6886C56.2639 21.3881 56.4038 20.9525 56.5823 20.3785C56.7607 19.8045 56.6208 19.4431 56.1625 19.2941C55.7043 19.1452 55.2582 19.269 54.8256 19.6675C54.3771 20.089 54.0255 20.5993 53.7941 21.1643C53.2331 22.6114 52.6856 24.0332 52.1516 25.4296C51.6176 26.826 51.0447 28.2226 50.4327 29.6195L50.3563 29.6943L47.4499 36.2792C46.1255 36.3785 44.763 36.5405 43.3625 36.7652C41.8319 37.0227 40.3245 37.3991 38.8548 37.8906C37.0739 38.4835 35.3271 39.1701 33.6218 39.9474C31.7368 40.7939 29.6737 41.8659 27.4323 43.1635C25.688 44.1858 24.0169 45.3233 22.4305 46.5682C20.8776 47.7894 19.5918 49.0736 18.5729 50.421C16.6876 52.8647 15.5793 55.1471 15.2481 57.2682C14.9169 59.3893 15.1196 61.2224 15.8564 62.7675C16.5968 64.3135 17.7562 65.5232 19.3347 66.3966ZM17.386 56.5943C17.8186 54.7733 18.8501 52.8901 20.4804 50.9447C21.6546 49.546 22.9449 48.2447 24.3379 47.0541C25.7285 45.8773 27.2246 44.8255 28.8078 43.9115C29.1647 43.7129 29.4946 43.5243 29.8008 43.3501C30.0701 43.1925 30.3512 43.0548 30.6416 42.9384C31.6389 42.3754 32.672 41.8757 33.7346 41.4422C34.831 40.993 36.0154 40.5441 37.288 40.0957L37.2116 40.0209C40.5227 38.9229 43.757 38.1505 46.9145 37.7039C45.2333 41.5435 43.4632 45.3099 41.6044 49.003C39.7456 52.6961 37.6192 56.0371 35.2251 59.0258C33.3415 61.421 31.457 63.1422 29.5716 64.1895C27.6862 65.2368 25.9288 65.7854 24.2994 65.8352C22.6704 65.8842 21.2442 65.4976 20.0208 64.6754C18.8223 63.882 17.923 62.7251 17.461 61.3826C16.9771 60.0109 16.9521 58.4148 17.386 56.5943Z" fill="#830715"/>
<path d="M58.527 15.1037L58.45 14.9541H58.6798C60.3092 13.2082 60.8438 12.2103 60.2837 11.9605L59.2908 11.5872L58.6034 11.6613C58.246 12.1605 58.0169 12.5221 57.916 12.7463C57.815 12.9705 57.6368 13.3571 57.3813 13.9062C57.2779 14.1571 57.3813 14.4298 57.6868 14.729C57.9924 15.0283 58.2715 15.1541 58.527 15.1037Z" fill="#830715"/>
<path d="M81.1157 0H1.49976C1.22331 0 0.680542 0.238985 0.680542 0.569988V78.5459C0.680542 78.9173 1.04216 78.9934 1.35647 78.9934H80.773C80.8793 79.0051 80.9867 79.002 81.0921 78.9841C81.1184 78.9841 81.1441 78.9755 81.1698 78.9702L81.1989 78.9636C81.2279 78.9568 81.2566 78.9484 81.2847 78.9384C81.5632 78.8484 81.7916 78.6664 81.7916 78.4234V0.447517C81.7916 0.0761308 81.43 0 81.1157 0ZM4.11898 78.1487C3.46265 78.1328 2.81444 78.095 2.17772 78.0288C2.16961 77.727 2.13311 77.4171 2.17772 77.1239C2.40145 75.5847 2.17772 73.8489 2.17772 72.2958V4.97763C2.17772 4.07267 2.58733 1.96881 2.20273 1.09496C3.27948 1.36969 5.1768 1.01684 6.17717 1.01684H66.9294C71.1499 1.01684 75.5441 1.36175 79.753 1.01684C79.9153 1.0036 80.1018 0.990363 80.2877 0.987053C80.2444 2.00059 80.2979 3.03133 80.2979 4.04354V77.9765H11.6062C9.76228 77.9765 7.80953 78.1136 5.87638 78.1513L4.11898 78.1487Z" fill="#830715"/>
</g>
<defs>
<clipPath id="clip0_45_763">
<rect width="81.1111" height="79" fill="white" transform="translate(0.680542)"/>
</clipPath>
</defs>
</svg>
