<svg width="62" height="61" viewBox="0 0 62 61" fill="none" xmlns="http://www.w3.org/2000/svg">
<g clip-path="url(#clip0_742_118)">
<path d="M14.5289 51.2683C15.715 51.9413 17.0651 52.2399 18.5793 52.1639C20.0934 52.0879 21.6638 51.5871 23.2905 50.6615C24.9172 49.7374 26.4591 48.293 27.9163 46.3284C28.6443 45.3258 29.3625 44.2474 30.0711 43.0932C30.7798 41.9389 31.4979 40.6484 32.2255 39.2216C32.9537 37.7971 33.7006 36.2373 34.4662 34.5423C35.2317 32.8473 36.0552 30.9789 36.9367 28.9373C37.3193 28.8985 37.6736 28.8697 37.9996 28.8509C38.3158 28.8311 38.6332 28.8407 38.9477 28.8796C40.1607 28.8775 41.3653 29.0827 42.5101 29.4863C43.6695 29.8963 44.7558 30.4912 45.7273 31.2483C46.6084 31.8276 47.4895 32.7619 48.3706 34.0511C49.2518 35.3402 49.9028 36.6787 50.3237 38.0663V38.1241C50.1325 37.9697 49.98 38.0949 49.8662 38.4998C49.7523 38.9046 49.7906 39.6266 49.981 40.6656L50.0385 40.7822H49.9236C50.1147 41.0125 50.3255 41.1086 50.556 41.0705C50.7852 41.0321 50.9377 40.9554 51.0135 40.8394C51.1283 40.7617 51.2168 40.7239 51.2722 40.7239C51.3276 40.7239 51.3195 40.685 51.2432 40.6084C51.3195 40.1841 51.3673 39.8574 51.3866 39.6264C51.4059 39.3954 51.3957 39.0488 51.3581 38.5862L51.1863 38.4706C51.2626 38.3929 51.2626 38.259 51.1863 38.0663C50.6693 36.0665 49.7604 34.1906 48.513 32.5487C47.2679 30.913 45.554 29.6899 43.3712 28.8796H43.4296C42.6692 28.5833 41.8793 28.3703 41.0735 28.2442C40.3069 28.1293 39.5409 28.0523 38.7753 28.0131C38.5461 28.0131 38.3061 28.0029 38.0571 27.984C37.808 27.9651 37.5686 27.9554 37.3388 27.9554C37.6834 27.1463 37.9715 26.5011 38.203 26.0196C38.4344 25.538 38.6069 25.153 38.7204 24.8643C38.8353 24.5757 38.9119 24.3734 38.9502 24.2576L39.0651 23.911L42.2254 16.7469C42.3016 16.5149 42.4069 16.1785 42.5411 15.7353C42.6753 15.2921 42.57 15.013 42.2254 14.898C41.8807 14.783 41.5452 14.8786 41.2199 15.1863C40.8826 15.5118 40.6182 15.9058 40.4442 16.3421C40.0223 17.4595 39.6105 18.5573 39.2089 19.6356C38.8074 20.7138 38.3765 21.7922 37.9163 22.8708L37.8588 22.9285L35.673 28.0131C34.677 28.0898 33.6524 28.2149 32.5991 28.3883C31.448 28.5872 30.3144 28.8778 29.209 29.2573C27.8697 29.7152 26.556 30.2453 25.2735 30.8455C23.8559 31.4991 22.3043 32.3269 20.6187 33.3288C19.3069 34.1182 18.0501 34.9965 16.857 35.9577C15.6892 36.9007 14.7222 37.8923 13.956 38.9327C12.5381 40.8196 11.7046 42.582 11.4555 44.2198C11.2064 45.8576 11.3589 47.273 11.913 48.4661C12.4698 49.6598 13.3417 50.5939 14.5289 51.2683ZM13.0633 43.6994C13.3887 42.2933 14.1644 40.8392 15.3905 39.3371C16.2736 38.257 17.2439 37.2522 18.2915 36.3329C19.3374 35.4243 20.4624 34.6121 21.6531 33.9064C21.9215 33.7531 22.1696 33.6074 22.3999 33.4729C22.6025 33.3512 22.8139 33.2449 23.0323 33.155C23.7823 32.7203 24.5592 32.3344 25.3584 31.9997C26.1829 31.6528 27.0737 31.3063 28.0307 30.96L27.9733 30.9023C30.4634 30.0544 32.8958 29.458 35.2704 29.1132C34.006 32.0779 32.6748 34.9862 31.2769 37.8378C29.879 40.6895 28.2798 43.2692 26.4793 45.5769C25.0627 47.4263 23.6455 48.7554 22.2276 49.5641C20.8097 50.3727 19.488 50.7963 18.2626 50.8348C17.0375 50.8727 15.9649 50.5741 15.0448 49.9393C14.1435 49.3266 13.4672 48.4334 13.1198 47.3967C12.7558 46.3376 12.737 45.1051 13.0633 43.6994Z" fill="#FEFEFE"/>
<path d="M44.0036 11.6623L43.9457 11.5468H44.1185C45.3439 10.1987 45.746 9.42817 45.3248 9.23529L44.578 8.94699L44.0611 9.00424C43.7923 9.38966 43.62 9.66893 43.5441 9.84205C43.4682 10.0152 43.3342 10.3137 43.142 10.7376C43.0642 10.9314 43.142 11.142 43.3718 11.373C43.6015 11.6041 43.8115 11.7012 44.0036 11.6623Z" fill="#FEFEFE"/>
<path d="M60.9917 0H1.1161C0.908192 0 0.5 0.184533 0.5 0.440118V60.6493C0.5 60.9361 0.771958 60.9949 1.00833 60.9949H60.7339C60.8139 61.0039 60.8946 61.0015 60.9739 60.9877C60.9937 60.9877 61.013 60.9811 61.0323 60.977L61.0542 60.9719C61.0761 60.9666 61.0976 60.9602 61.1188 60.9525C61.3282 60.8829 61.5 60.7424 61.5 60.5548V0.345551C61.5 0.0587846 61.228 0 60.9917 0ZM3.08589 60.3426C2.5923 60.3304 2.10481 60.3012 1.62596 60.2501C1.61986 60.017 1.59241 59.7778 1.62596 59.5513C1.79422 58.3629 1.62596 57.0226 1.62596 55.8234V3.84349C1.62596 3.14472 1.93401 1.52022 1.64477 0.845476C2.45454 1.05761 3.88143 0.785158 4.63377 0.785158H50.3228C53.4968 0.785158 56.8015 1.05148 59.9669 0.785158C60.0889 0.774934 60.2292 0.764711 60.369 0.762155C60.3364 1.54476 60.3766 2.34065 60.3766 3.12223V60.2097H8.7167C7.32997 60.2097 5.86139 60.3155 4.40756 60.3447L3.08589 60.3426Z" fill="#FEFEFE"/>
</g>
<defs>
<clipPath id="clip0_742_118">
<rect width="61" height="61" fill="white" transform="translate(0.5)"/>
</clipPath>
</defs>
</svg>
